<svg xmlns="http://www.w3.org/2000/svg" width="32" height="32" viewBox="0 0 32 32">
  <rect width="32" height="32" rx="8" fill="#4F46E5"/>
  <path d="M16 8C11.582 8 8 11.582 8 16C8 20.418 11.582 24 16 24C20.418 24 24 20.418 24 16C24 11.582 20.418 8 16 8ZM16 22C12.686 22 10 19.314 10 16C10 12.686 12.686 10 16 10C19.314 10 22 12.686 22 16C22 19.314 19.314 22 16 22Z" fill="white"/>
  <circle cx="16" cy="16" r="4" fill="white"/>
  <path d="M24 12L28 8M24 20L28 24M8 12L4 8M8 20L4 24" stroke="white" stroke-width="2" stroke-linecap="round"/>
</svg> 