<?xml version="1.0" encoding="UTF-8"?>
<svg width="24px" height="24px" viewBox="0 0 24 24" version="1.1" xmlns="http://www.w3.org/2000/svg">
    <g stroke="none" stroke-width="1" fill="none" fill-rule="evenodd">
        <path d="M21.1789474,3 L16.8947368,3 L16.8947368,1 L14.9473684,1 L14.9473684,3 L9.05263158,3 L9.05263158,1 L7.10526316,1 L7.10526316,3 L2.82105263,3 C1.81473684,3 1,3.81473684 1,4.82105263 L1,19.1789474 C1,20.1852632 1.81473684,21 2.82105263,21 L21.1789474,21 C22.1852632,21 23,20.1852632 23,19.1789474 L23,4.82105263 C23,3.81473684 22.1852632,3 21.1789474,3 Z M21.1789474,19.1789474 L2.82105263,19.1789474 L2.82105263,8.71052632 L21.1789474,8.71052632 L21.1789474,19.1789474 Z" fill="#FFFFFF" fill-rule="nonzero"/>
        <path d="M12,10.6578947 L19.2315789,14.9421053 L19.2315789,16.8894737 L12,12.6052632 L4.76842105,16.8894737 L4.76842105,14.9421053 L12,10.6578947 Z" fill="#FFFFFF" fill-rule="nonzero"/>
    </g>
</svg> 