<?xml version="1.0" encoding="UTF-8"?>
<svg width="24px" height="24px" viewBox="0 0 24 24" version="1.1" xmlns="http://www.w3.org/2000/svg">
    <g stroke="none" stroke-width="1" fill="none" fill-rule="evenodd">
        <path d="M21.5,3 L17,3 L17,1 L15,1 L15,3 L9,3 L9,1 L7,1 L7,3 L2.5,3 C1.67157288,3 1,3.67157288 1,4.5 L1,20.5 C1,21.3284271 1.67157288,22 2.5,22 L21.5,22 C22.3284271,22 23,21.3284271 23,20.5 L23,4.5 C23,3.67157288 22.3284271,3 21.5,3 Z M21,20 L3,20 L3,8 L21,8 L21,20 Z" fill="#FFFFFF" fill-rule="nonzero"/>
        <rect fill="#FFFFFF" x="5" y="11" width="4" height="4" rx="1"/>
        <rect fill="#FFFFFF" x="10" y="11" width="4" height="4" rx="1"/>
        <rect fill="#FFFFFF" x="15" y="11" width="4" height="4" rx="1"/>
    </g>
</svg> 