<?xml version="1.0" encoding="UTF-8"?>
<svg width="24px" height="24px" viewBox="0 0 24 24" version="1.1" xmlns="http://www.w3.org/2000/svg">
    <g stroke="none" stroke-width="1" fill="none" fill-rule="evenodd">
        <path d="M14.5211267,4.97183099 L14.5211267,9.91549296 L16.056338,10.8450704 L23.0985915,6.49295775 L23.0985915,17.4647887 L16.056338,13.1126761 L14.5211267,14.0422535 L14.5211267,19.0281691 L1,19.0281691 L1,4.97183099 L14.5211267,4.97183099 Z M14.5211267,11.7746479 L14.5211267,12.2253521 L15.2957747,11.7746479 L15.2957747,12.2253521 L14.5211267,11.7746479 Z M16.056338,11.7746479 L21.5633803,15.1267606 L21.5633803,8.83098592 L16.056338,12.2253521 L16.056338,11.7746479 Z" fill="#FFFFFF" fill-rule="nonzero"/>
        <path d="M7.76056338,8.83098592 C9.29577465,8.83098592 10.5915493,10.1267606 10.5915493,11.6619718 C10.5915493,13.1971831 9.29577465,14.4929577 7.76056338,14.4929577 C6.22535211,14.4929577 4.92957746,13.1971831 4.92957746,11.6619718 C4.92957746,10.1267606 6.22535211,8.83098592 7.76056338,8.83098592 Z" fill="#FFFFFF" fill-rule="nonzero"/>
    </g>
</svg> 